# xmcd
#
# Track frame offsets: 
#        150
#        16608
#        32710
#        51200
#        72683
#        93140
#        109138
#        126593
#        149693
#        165135
#        186813
#        205770
#
# Disc length: 2969 seconds
#
# Revision: 0
# Processed by: cddbd v1.4PL0 Copyright (c) Steve Scherf et al.
# Submitted via: ExactAudioCopy v0.90b2
#
DISCID=a50b970c
DTITLE=Mulens Portland Combo - Blå Stikke
DYEAR=1993
DGENRE=Blues
TTITLE0=Ain't that I don't love you
TTITLE1=Say you will
TTITLE2=I've got what it takes
TTITLE3=Ain't living long like this
TTITLE4=Help me through the day
TTITLE5=My babe
TTITLE6=Crossfire
TTITLE7=Driftin'
TTITLE8=Things I do for you
TTITLE9=Look what you've done
TTITLE10=Shake your hip
TTITLE11=Need your love so bad
EXTD=
EXTT0=
EXTT1=
EXTT2=
EXTT3=
EXTT4=
EXTT5=
EXTT6=
EXTT7=
EXTT8=
EXTT9=
EXTT10=
EXTT11=
PLAYORDER=
